G04 PROTEUS GERBER X2 FILE*
%TF.GenerationSoftware,Labcenter,Proteus,8.13-SP0-Build31525*%
%TF.CreationDate,2024-11-27T16:09:25+00:00*%
%TF.FileFunction,AssemblyDrawing,Top*%
%TF.FilePolarity,Positive*%
%TF.Part,Single*%
%TF.SameCoordinates,{6c36026d-0d5a-4654-bc71-8b13258c69e2}*%
%FSLAX45Y45*%
%MOMM*%
G01*
%TA.AperFunction,Material*%
%ADD15C,0.203200*%
%ADD19C,1.219200*%
%ADD70C,0.278550*%
%ADD71C,0.225260*%
%ADD20C,0.084660*%
%TD.AperFunction*%
D15*
X+2014586Y+428840D02*
X+3558906Y+428840D01*
X+3558906Y+1211160D01*
X+2014586Y+1211160D01*
X+2014586Y+428840D01*
D19*
X+3294746Y+820000D02*
X+3294746Y+820000D01*
D70*
X+2122792Y+903566D02*
X+2122792Y+736434D01*
X+2310814Y+736434D01*
X+2561511Y+736434D02*
X+2373489Y+736434D01*
X+2373489Y+903566D01*
X+2561511Y+903566D01*
X+2373489Y+820000D02*
X+2498837Y+820000D01*
X+2624186Y+736434D02*
X+2624186Y+903566D01*
X+2812208Y+903566D01*
X+2624186Y+820000D02*
X+2749534Y+820000D01*
X+2874883Y+903566D02*
X+3062905Y+903566D01*
X+2968894Y+903566D02*
X+2968894Y+736434D01*
D15*
X+4384586Y+418840D02*
X+5928906Y+418840D01*
X+5928906Y+1201160D01*
X+4384586Y+1201160D01*
X+4384586Y+418840D01*
D19*
X+5664746Y+810000D02*
X+5664746Y+810000D01*
D71*
X+4487349Y+742421D02*
X+4487349Y+877578D01*
X+4614058Y+877578D01*
X+4639400Y+855052D01*
X+4639400Y+832526D01*
X+4614058Y+810000D01*
X+4487349Y+810000D01*
X+4614058Y+810000D02*
X+4639400Y+787473D01*
X+4639400Y+742421D01*
X+4715425Y+877578D02*
X+4816793Y+877578D01*
X+4766109Y+877578D02*
X+4766109Y+742421D01*
X+4715425Y+742421D02*
X+4816793Y+742421D01*
X+4994186Y+787473D02*
X+5044870Y+787473D01*
X+5044870Y+742421D01*
X+4943502Y+742421D01*
X+4892819Y+787473D01*
X+4892819Y+832526D01*
X+4943502Y+877578D01*
X+5019528Y+877578D01*
X+5044870Y+855052D01*
X+5095554Y+742421D02*
X+5095554Y+877578D01*
X+5247605Y+877578D02*
X+5247605Y+742421D01*
X+5095554Y+810000D02*
X+5247605Y+810000D01*
X+5298289Y+877578D02*
X+5450340Y+877578D01*
X+5374314Y+877578D02*
X+5374314Y+742421D01*
D15*
X+527586Y+752840D02*
X+801906Y+752840D01*
X+801906Y+1027160D01*
X+527586Y+1027160D01*
X+527586Y+752840D01*
D20*
X+588547Y+881533D02*
X+588547Y+873066D01*
X+598071Y+864600D01*
X+636171Y+864600D01*
X+645696Y+873066D01*
X+645696Y+915399D01*
X+674270Y+906933D02*
X+683795Y+915399D01*
X+712370Y+915399D01*
X+721895Y+906933D01*
X+721895Y+898466D01*
X+712370Y+890000D01*
X+683795Y+890000D01*
X+674270Y+881533D01*
X+674270Y+864600D01*
X+721895Y+864600D01*
D15*
X+917586Y+1702840D02*
X+1191906Y+1702840D01*
X+1191906Y+1977160D01*
X+917586Y+1977160D01*
X+917586Y+1702840D01*
D20*
X+978547Y+1831533D02*
X+978547Y+1823066D01*
X+988071Y+1814600D01*
X+1026171Y+1814600D01*
X+1035696Y+1823066D01*
X+1035696Y+1865399D01*
X+1064270Y+1856933D02*
X+1073795Y+1865399D01*
X+1102370Y+1865399D01*
X+1111895Y+1856933D01*
X+1111895Y+1848466D01*
X+1102370Y+1840000D01*
X+1111895Y+1831533D01*
X+1111895Y+1823066D01*
X+1102370Y+1814600D01*
X+1073795Y+1814600D01*
X+1064270Y+1823066D01*
X+1083320Y+1840000D02*
X+1102370Y+1840000D01*
D15*
X+127586Y+1212840D02*
X+401906Y+1212840D01*
X+401906Y+1487160D01*
X+127586Y+1487160D01*
X+127586Y+1212840D01*
D20*
X+188547Y+1341533D02*
X+188547Y+1333066D01*
X+198071Y+1324600D01*
X+236171Y+1324600D01*
X+245696Y+1333066D01*
X+245696Y+1375399D01*
X+321895Y+1341533D02*
X+264746Y+1341533D01*
X+302845Y+1375399D01*
X+302845Y+1324600D01*
D15*
X+6837586Y+1682840D02*
X+7111906Y+1682840D01*
X+7111906Y+1957160D01*
X+6837586Y+1957160D01*
X+6837586Y+1682840D01*
D20*
X+6898547Y+1811533D02*
X+6898547Y+1803066D01*
X+6908071Y+1794600D01*
X+6946171Y+1794600D01*
X+6955696Y+1803066D01*
X+6955696Y+1845399D01*
X+7031895Y+1845399D02*
X+6984270Y+1845399D01*
X+6984270Y+1828466D01*
X+7022370Y+1828466D01*
X+7031895Y+1820000D01*
X+7031895Y+1803066D01*
X+7022370Y+1794600D01*
X+6993795Y+1794600D01*
X+6984270Y+1803066D01*
D15*
X+6467586Y+732840D02*
X+6741906Y+732840D01*
X+6741906Y+1007160D01*
X+6467586Y+1007160D01*
X+6467586Y+732840D01*
D20*
X+6528547Y+861533D02*
X+6528547Y+853066D01*
X+6538071Y+844600D01*
X+6576171Y+844600D01*
X+6585696Y+853066D01*
X+6585696Y+895399D01*
X+6614270Y+895399D02*
X+6661895Y+895399D01*
X+6661895Y+886933D01*
X+6614270Y+844600D01*
D15*
X+7267586Y+1222840D02*
X+7541906Y+1222840D01*
X+7541906Y+1497160D01*
X+7267586Y+1497160D01*
X+7267586Y+1222840D01*
D20*
X+7328547Y+1351533D02*
X+7328547Y+1343066D01*
X+7338071Y+1334600D01*
X+7376171Y+1334600D01*
X+7385696Y+1343066D01*
X+7385696Y+1385399D01*
X+7423795Y+1360000D02*
X+7414270Y+1368466D01*
X+7414270Y+1376933D01*
X+7423795Y+1385399D01*
X+7452370Y+1385399D01*
X+7461895Y+1376933D01*
X+7461895Y+1368466D01*
X+7452370Y+1360000D01*
X+7423795Y+1360000D01*
X+7414270Y+1351533D01*
X+7414270Y+1343066D01*
X+7423795Y+1334600D01*
X+7452370Y+1334600D01*
X+7461895Y+1343066D01*
X+7461895Y+1351533D01*
X+7452370Y+1360000D01*
M02*
