G04 PROTEUS GERBER X2 FILE*
%TF.GenerationSoftware,Labcenter,Proteus,8.13-SP0-Build31525*%
%TF.CreationDate,2024-11-27T16:09:25+00:00*%
%TF.FileFunction,Legend,Top*%
%TF.FilePolarity,Positive*%
%TF.Part,Single*%
%TF.SameCoordinates,{6c36026d-0d5a-4654-bc71-8b13258c69e2}*%
%FSLAX45Y45*%
%MOMM*%
G01*
%TA.AperFunction,Material*%
%ADD15C,0.203200*%
%TA.AperFunction,NonMaterial*%
%ADD16C,0.203200*%
%TD.AperFunction*%
D15*
X+3548746Y+1201000D02*
X+3548746Y+439000D01*
X+2024746Y+439000D02*
X+2024746Y+1201000D01*
X+3548746Y+439000D02*
X+2024746Y+439000D01*
X+3548746Y+1201000D02*
X+2024746Y+1201000D01*
X+2532746Y+398360D02*
X+2532746Y+306920D01*
X+2627996Y+306920D01*
X+2754996Y+306920D02*
X+2659746Y+306920D01*
X+2659746Y+398360D01*
X+2754996Y+398360D01*
X+2659746Y+352640D02*
X+2723246Y+352640D01*
X+2786746Y+306920D02*
X+2786746Y+398360D01*
X+2881996Y+398360D01*
X+2786746Y+352640D02*
X+2850246Y+352640D01*
X+2913746Y+398360D02*
X+3008996Y+398360D01*
X+2961371Y+398360D02*
X+2961371Y+306920D01*
X+5918746Y+1191000D02*
X+5918746Y+429000D01*
X+4394746Y+429000D02*
X+4394746Y+1191000D01*
X+5918746Y+429000D02*
X+4394746Y+429000D01*
X+5918746Y+1191000D02*
X+4394746Y+1191000D01*
X+4839246Y+296920D02*
X+4839246Y+388360D01*
X+4918621Y+388360D01*
X+4934496Y+373120D01*
X+4934496Y+357880D01*
X+4918621Y+342640D01*
X+4839246Y+342640D01*
X+4918621Y+342640D02*
X+4934496Y+327400D01*
X+4934496Y+296920D01*
X+4982121Y+388360D02*
X+5045621Y+388360D01*
X+5013871Y+388360D02*
X+5013871Y+296920D01*
X+4982121Y+296920D02*
X+5045621Y+296920D01*
X+5156746Y+327400D02*
X+5188496Y+327400D01*
X+5188496Y+296920D01*
X+5124996Y+296920D01*
X+5093246Y+327400D01*
X+5093246Y+357880D01*
X+5124996Y+388360D01*
X+5172621Y+388360D01*
X+5188496Y+373120D01*
X+5220246Y+296920D02*
X+5220246Y+388360D01*
X+5315496Y+388360D02*
X+5315496Y+296920D01*
X+5220246Y+342640D02*
X+5315496Y+342640D01*
X+5347246Y+388360D02*
X+5442496Y+388360D01*
X+5394871Y+388360D02*
X+5394871Y+296920D01*
X+537746Y+763000D02*
X+791746Y+763000D01*
X+791746Y+1017000D01*
X+537746Y+1017000D01*
X+537746Y+763000D01*
X+537746Y+1088120D02*
X+537746Y+1072880D01*
X+553621Y+1057640D01*
X+617121Y+1057640D01*
X+632996Y+1072880D01*
X+632996Y+1149080D01*
X+680621Y+1133840D02*
X+696496Y+1149080D01*
X+744121Y+1149080D01*
X+759996Y+1133840D01*
X+759996Y+1118600D01*
X+744121Y+1103360D01*
X+696496Y+1103360D01*
X+680621Y+1088120D01*
X+680621Y+1057640D01*
X+759996Y+1057640D01*
X+927746Y+1713000D02*
X+1181746Y+1713000D01*
X+1181746Y+1967000D01*
X+927746Y+1967000D01*
X+927746Y+1713000D01*
X+927746Y+2038120D02*
X+927746Y+2022880D01*
X+943621Y+2007640D01*
X+1007121Y+2007640D01*
X+1022996Y+2022880D01*
X+1022996Y+2099080D01*
X+1070621Y+2083840D02*
X+1086496Y+2099080D01*
X+1134121Y+2099080D01*
X+1149996Y+2083840D01*
X+1149996Y+2068600D01*
X+1134121Y+2053360D01*
X+1149996Y+2038120D01*
X+1149996Y+2022880D01*
X+1134121Y+2007640D01*
X+1086496Y+2007640D01*
X+1070621Y+2022880D01*
X+1102371Y+2053360D02*
X+1134121Y+2053360D01*
X+137746Y+1223000D02*
X+391746Y+1223000D01*
X+391746Y+1477000D01*
X+137746Y+1477000D01*
X+137746Y+1223000D01*
X+137746Y+1548120D02*
X+137746Y+1532880D01*
X+153621Y+1517640D01*
X+217121Y+1517640D01*
X+232996Y+1532880D01*
X+232996Y+1609080D01*
X+359996Y+1548120D02*
X+264746Y+1548120D01*
X+328246Y+1609080D01*
X+328246Y+1517640D01*
D16*
X+264746Y+1350000D02*
X+664746Y+1350000D01*
X+264746Y+1350000D02*
X+391746Y+1223000D01*
X+264746Y+1350000D02*
X+391746Y+1477000D01*
X+664746Y+1350000D02*
X+537746Y+1477000D01*
X+664746Y+1350000D02*
X+537746Y+1223000D01*
X+496496Y+1350000D02*
X+496387Y+1352634D01*
X+495497Y+1357903D01*
X+493635Y+1363172D01*
X+490592Y+1368441D01*
X+485937Y+1373643D01*
X+480668Y+1377469D01*
X+475399Y+1379909D01*
X+470130Y+1381290D01*
X+464861Y+1381750D01*
X+464746Y+1381750D01*
X+432996Y+1350000D02*
X+433105Y+1352634D01*
X+433995Y+1357903D01*
X+435857Y+1363172D01*
X+438900Y+1368441D01*
X+443555Y+1373643D01*
X+448824Y+1377469D01*
X+454093Y+1379909D01*
X+459362Y+1381290D01*
X+464631Y+1381750D01*
X+464746Y+1381750D01*
X+432996Y+1350000D02*
X+433105Y+1347366D01*
X+433995Y+1342097D01*
X+435857Y+1336828D01*
X+438900Y+1331559D01*
X+443555Y+1326357D01*
X+448824Y+1322531D01*
X+454093Y+1320091D01*
X+459362Y+1318710D01*
X+464631Y+1318250D01*
X+464746Y+1318250D01*
X+496496Y+1350000D02*
X+496387Y+1347366D01*
X+495497Y+1342097D01*
X+493635Y+1336828D01*
X+490592Y+1331559D01*
X+485937Y+1326357D01*
X+480668Y+1322531D01*
X+475399Y+1320091D01*
X+470130Y+1318710D01*
X+464861Y+1318250D01*
X+464746Y+1318250D01*
X+369496Y+1421120D02*
X+274246Y+1421120D01*
X+337746Y+1482080D01*
X+337746Y+1390640D01*
X+401246Y+1390640D02*
X+401246Y+1451600D01*
X+401246Y+1436360D02*
X+417121Y+1451600D01*
X+448871Y+1421120D01*
X+480621Y+1451600D01*
X+496496Y+1436360D01*
X+496496Y+1390640D01*
X+528246Y+1390640D02*
X+528246Y+1451600D01*
X+528246Y+1436360D02*
X+544121Y+1451600D01*
X+575871Y+1421120D01*
X+607621Y+1451600D01*
X+623496Y+1436360D01*
X+623496Y+1390640D01*
X+664746Y+1340000D02*
X+664746Y+890000D01*
X+664746Y+1340000D02*
X+537746Y+1213000D01*
X+664746Y+1340000D02*
X+791746Y+1213000D01*
X+664746Y+890000D02*
X+791746Y+1017000D01*
X+664746Y+890000D02*
X+537746Y+1017000D01*
X+696496Y+1115000D02*
X+696387Y+1117634D01*
X+695497Y+1122903D01*
X+693635Y+1128172D01*
X+690592Y+1133441D01*
X+685937Y+1138643D01*
X+680668Y+1142469D01*
X+675399Y+1144909D01*
X+670130Y+1146290D01*
X+664861Y+1146750D01*
X+664746Y+1146750D01*
X+632996Y+1115000D02*
X+633105Y+1117634D01*
X+633995Y+1122903D01*
X+635857Y+1128172D01*
X+638900Y+1133441D01*
X+643555Y+1138643D01*
X+648824Y+1142469D01*
X+654093Y+1144909D01*
X+659362Y+1146290D01*
X+664631Y+1146750D01*
X+664746Y+1146750D01*
X+632996Y+1115000D02*
X+633105Y+1112366D01*
X+633995Y+1107097D01*
X+635857Y+1101828D01*
X+638900Y+1096559D01*
X+643555Y+1091357D01*
X+648824Y+1087531D01*
X+654093Y+1085091D01*
X+659362Y+1083710D01*
X+664631Y+1083250D01*
X+664746Y+1083250D01*
X+696496Y+1115000D02*
X+696387Y+1112366D01*
X+695497Y+1107097D01*
X+693635Y+1101828D01*
X+690592Y+1096559D01*
X+685937Y+1091357D01*
X+680668Y+1087531D01*
X+675399Y+1085091D01*
X+670130Y+1083710D01*
X+664861Y+1083250D01*
X+664746Y+1083250D01*
X+735866Y+1337250D02*
X+735866Y+1432500D01*
X+796826Y+1369000D01*
X+705386Y+1369000D01*
X+720626Y+1257875D02*
X+720626Y+1242000D01*
X+705386Y+1242000D01*
X+705386Y+1257875D01*
X+720626Y+1257875D01*
X+796826Y+1083250D02*
X+796826Y+1162625D01*
X+766346Y+1162625D01*
X+766346Y+1099125D01*
X+751106Y+1083250D01*
X+720626Y+1083250D01*
X+705386Y+1099125D01*
X+705386Y+1146750D01*
X+720626Y+1162625D01*
X+705386Y+1051500D02*
X+766346Y+1051500D01*
X+751106Y+1051500D02*
X+766346Y+1035625D01*
X+735866Y+1003875D01*
X+766346Y+972125D01*
X+751106Y+956250D01*
X+705386Y+956250D01*
X+705386Y+924500D02*
X+766346Y+924500D01*
X+751106Y+924500D02*
X+766346Y+908625D01*
X+735866Y+876875D01*
X+766346Y+845125D01*
X+751106Y+829250D01*
X+705386Y+829250D01*
X+264746Y+1350000D02*
X+1064746Y+1350000D01*
X+264746Y+1350000D02*
X+391746Y+1223000D01*
X+264746Y+1350000D02*
X+391746Y+1477000D01*
X+1064746Y+1350000D02*
X+937746Y+1477000D01*
X+1064746Y+1350000D02*
X+937746Y+1223000D01*
X+696496Y+1350000D02*
X+696387Y+1352634D01*
X+695497Y+1357903D01*
X+693635Y+1363172D01*
X+690592Y+1368441D01*
X+685937Y+1373643D01*
X+680668Y+1377469D01*
X+675399Y+1379909D01*
X+670130Y+1381290D01*
X+664861Y+1381750D01*
X+664746Y+1381750D01*
X+632996Y+1350000D02*
X+633105Y+1352634D01*
X+633995Y+1357903D01*
X+635857Y+1363172D01*
X+638900Y+1368441D01*
X+643555Y+1373643D01*
X+648824Y+1377469D01*
X+654093Y+1379909D01*
X+659362Y+1381290D01*
X+664631Y+1381750D01*
X+664746Y+1381750D01*
X+632996Y+1350000D02*
X+633105Y+1347366D01*
X+633995Y+1342097D01*
X+635857Y+1336828D01*
X+638900Y+1331559D01*
X+643555Y+1326357D01*
X+648824Y+1322531D01*
X+654093Y+1320091D01*
X+659362Y+1318710D01*
X+664631Y+1318250D01*
X+664746Y+1318250D01*
X+696496Y+1350000D02*
X+696387Y+1347366D01*
X+695497Y+1342097D01*
X+693635Y+1336828D01*
X+690592Y+1331559D01*
X+685937Y+1326357D01*
X+680668Y+1322531D01*
X+675399Y+1320091D01*
X+670130Y+1318710D01*
X+664861Y+1318250D01*
X+664746Y+1318250D01*
X+505996Y+1436360D02*
X+490121Y+1451600D01*
X+490121Y+1466840D01*
X+505996Y+1482080D01*
X+553621Y+1482080D01*
X+569496Y+1466840D01*
X+569496Y+1451600D01*
X+553621Y+1436360D01*
X+505996Y+1436360D01*
X+490121Y+1421120D01*
X+490121Y+1405880D01*
X+505996Y+1390640D01*
X+553621Y+1390640D01*
X+569496Y+1405880D01*
X+569496Y+1421120D01*
X+553621Y+1436360D01*
X+601246Y+1390640D02*
X+601246Y+1451600D01*
X+601246Y+1436360D02*
X+617121Y+1451600D01*
X+648871Y+1421120D01*
X+680621Y+1451600D01*
X+696496Y+1436360D01*
X+696496Y+1390640D01*
X+728246Y+1390640D02*
X+728246Y+1451600D01*
X+728246Y+1436360D02*
X+744121Y+1451600D01*
X+775871Y+1421120D01*
X+807621Y+1451600D01*
X+823496Y+1436360D01*
X+823496Y+1390640D01*
X+1054746Y+1350000D02*
X+1054746Y+1850000D01*
X+1054746Y+1350000D02*
X+1181746Y+1477000D01*
X+1054746Y+1350000D02*
X+927746Y+1477000D01*
X+1054746Y+1850000D02*
X+927746Y+1723000D01*
X+1054746Y+1850000D02*
X+1181746Y+1723000D01*
X+1086496Y+1600000D02*
X+1086387Y+1602634D01*
X+1085497Y+1607903D01*
X+1083635Y+1613172D01*
X+1080592Y+1618441D01*
X+1075937Y+1623643D01*
X+1070668Y+1627469D01*
X+1065399Y+1629909D01*
X+1060130Y+1631290D01*
X+1054861Y+1631750D01*
X+1054746Y+1631750D01*
X+1022996Y+1600000D02*
X+1023105Y+1602634D01*
X+1023995Y+1607903D01*
X+1025857Y+1613172D01*
X+1028900Y+1618441D01*
X+1033555Y+1623643D01*
X+1038824Y+1627469D01*
X+1044093Y+1629909D01*
X+1049362Y+1631290D01*
X+1054631Y+1631750D01*
X+1054746Y+1631750D01*
X+1022996Y+1600000D02*
X+1023105Y+1597366D01*
X+1023995Y+1592097D01*
X+1025857Y+1586828D01*
X+1028900Y+1581559D01*
X+1033555Y+1576357D01*
X+1038824Y+1572531D01*
X+1044093Y+1570091D01*
X+1049362Y+1568710D01*
X+1054631Y+1568250D01*
X+1054746Y+1568250D01*
X+1086496Y+1600000D02*
X+1086387Y+1597366D01*
X+1085497Y+1592097D01*
X+1083635Y+1586828D01*
X+1080592Y+1581559D01*
X+1075937Y+1576357D01*
X+1070668Y+1572531D01*
X+1065399Y+1570091D01*
X+1060130Y+1568710D01*
X+1054861Y+1568250D01*
X+1054746Y+1568250D01*
X+922666Y+1504750D02*
X+922666Y+1425375D01*
X+953146Y+1425375D01*
X+953146Y+1488875D01*
X+968386Y+1504750D01*
X+998866Y+1504750D01*
X+1014106Y+1488875D01*
X+1014106Y+1441250D01*
X+998866Y+1425375D01*
X+1014106Y+1536500D02*
X+953146Y+1536500D01*
X+968386Y+1536500D02*
X+953146Y+1552375D01*
X+983626Y+1584125D01*
X+953146Y+1615875D01*
X+968386Y+1631750D01*
X+1014106Y+1631750D01*
X+1014106Y+1663500D02*
X+953146Y+1663500D01*
X+968386Y+1663500D02*
X+953146Y+1679375D01*
X+983626Y+1711125D01*
X+953146Y+1742875D01*
X+968386Y+1758750D01*
X+1014106Y+1758750D01*
X+7394746Y+1360000D02*
X+6994746Y+1360000D01*
X+7394746Y+1360000D02*
X+7267746Y+1487000D01*
X+7394746Y+1360000D02*
X+7267746Y+1233000D01*
X+6994746Y+1360000D02*
X+7121746Y+1233000D01*
X+6994746Y+1360000D02*
X+7121746Y+1487000D01*
X+7226496Y+1360000D02*
X+7226387Y+1362634D01*
X+7225497Y+1367903D01*
X+7223635Y+1373172D01*
X+7220592Y+1378441D01*
X+7215937Y+1383643D01*
X+7210668Y+1387469D01*
X+7205399Y+1389909D01*
X+7200130Y+1391290D01*
X+7194861Y+1391750D01*
X+7194746Y+1391750D01*
X+7162996Y+1360000D02*
X+7163105Y+1362634D01*
X+7163995Y+1367903D01*
X+7165857Y+1373172D01*
X+7168900Y+1378441D01*
X+7173555Y+1383643D01*
X+7178824Y+1387469D01*
X+7184093Y+1389909D01*
X+7189362Y+1391290D01*
X+7194631Y+1391750D01*
X+7194746Y+1391750D01*
X+7162996Y+1360000D02*
X+7163105Y+1357366D01*
X+7163995Y+1352097D01*
X+7165857Y+1346828D01*
X+7168900Y+1341559D01*
X+7173555Y+1336357D01*
X+7178824Y+1332531D01*
X+7184093Y+1330091D01*
X+7189362Y+1328710D01*
X+7194631Y+1328250D01*
X+7194746Y+1328250D01*
X+7226496Y+1360000D02*
X+7226387Y+1357366D01*
X+7225497Y+1352097D01*
X+7223635Y+1346828D01*
X+7220592Y+1341559D01*
X+7215937Y+1336357D01*
X+7210668Y+1332531D01*
X+7205399Y+1330091D01*
X+7200130Y+1328710D01*
X+7194861Y+1328250D01*
X+7194746Y+1328250D01*
X+7099496Y+1431120D02*
X+7004246Y+1431120D01*
X+7067746Y+1492080D01*
X+7067746Y+1400640D01*
X+7131246Y+1400640D02*
X+7131246Y+1461600D01*
X+7131246Y+1446360D02*
X+7147121Y+1461600D01*
X+7178871Y+1431120D01*
X+7210621Y+1461600D01*
X+7226496Y+1446360D01*
X+7226496Y+1400640D01*
X+7258246Y+1400640D02*
X+7258246Y+1461600D01*
X+7258246Y+1446360D02*
X+7274121Y+1461600D01*
X+7305871Y+1431120D01*
X+7337621Y+1461600D01*
X+7353496Y+1446360D01*
X+7353496Y+1400640D01*
X+6994746Y+1370000D02*
X+6994746Y+1820000D01*
X+6994746Y+1370000D02*
X+7121746Y+1497000D01*
X+6994746Y+1370000D02*
X+6867746Y+1497000D01*
X+6994746Y+1820000D02*
X+6867746Y+1693000D01*
X+6994746Y+1820000D02*
X+7121746Y+1693000D01*
X+7026496Y+1595000D02*
X+7026387Y+1597634D01*
X+7025497Y+1602903D01*
X+7023635Y+1608172D01*
X+7020592Y+1613441D01*
X+7015937Y+1618643D01*
X+7010668Y+1622469D01*
X+7005399Y+1624909D01*
X+7000130Y+1626290D01*
X+6994861Y+1626750D01*
X+6994746Y+1626750D01*
X+6962996Y+1595000D02*
X+6963105Y+1597634D01*
X+6963995Y+1602903D01*
X+6965857Y+1608172D01*
X+6968900Y+1613441D01*
X+6973555Y+1618643D01*
X+6978824Y+1622469D01*
X+6984093Y+1624909D01*
X+6989362Y+1626290D01*
X+6994631Y+1626750D01*
X+6994746Y+1626750D01*
X+6962996Y+1595000D02*
X+6963105Y+1592366D01*
X+6963995Y+1587097D01*
X+6965857Y+1581828D01*
X+6968900Y+1576559D01*
X+6973555Y+1571357D01*
X+6978824Y+1567531D01*
X+6984093Y+1565091D01*
X+6989362Y+1563710D01*
X+6994631Y+1563250D01*
X+6994746Y+1563250D01*
X+7026496Y+1595000D02*
X+7026387Y+1592366D01*
X+7025497Y+1587097D01*
X+7023635Y+1581828D01*
X+7020592Y+1576559D01*
X+7015937Y+1571357D01*
X+7010668Y+1567531D01*
X+7005399Y+1565091D01*
X+7000130Y+1563710D01*
X+6994861Y+1563250D01*
X+6994746Y+1563250D01*
X+6923626Y+1372750D02*
X+6923626Y+1277500D01*
X+6862666Y+1341000D01*
X+6954106Y+1341000D01*
X+6938866Y+1452125D02*
X+6938866Y+1468000D01*
X+6954106Y+1468000D01*
X+6954106Y+1452125D01*
X+6938866Y+1452125D01*
X+6862666Y+1626750D02*
X+6862666Y+1547375D01*
X+6893146Y+1547375D01*
X+6893146Y+1610875D01*
X+6908386Y+1626750D01*
X+6938866Y+1626750D01*
X+6954106Y+1610875D01*
X+6954106Y+1563250D01*
X+6938866Y+1547375D01*
X+6954106Y+1658500D02*
X+6893146Y+1658500D01*
X+6908386Y+1658500D02*
X+6893146Y+1674375D01*
X+6923626Y+1706125D01*
X+6893146Y+1737875D01*
X+6908386Y+1753750D01*
X+6954106Y+1753750D01*
X+6954106Y+1785500D02*
X+6893146Y+1785500D01*
X+6908386Y+1785500D02*
X+6893146Y+1801375D01*
X+6923626Y+1833125D01*
X+6893146Y+1864875D01*
X+6908386Y+1880750D01*
X+6954106Y+1880750D01*
X+7394746Y+1360000D02*
X+6594746Y+1360000D01*
X+7394746Y+1360000D02*
X+7267746Y+1487000D01*
X+7394746Y+1360000D02*
X+7267746Y+1233000D01*
X+6594746Y+1360000D02*
X+6721746Y+1233000D01*
X+6594746Y+1360000D02*
X+6721746Y+1487000D01*
X+7026496Y+1360000D02*
X+7026387Y+1362634D01*
X+7025497Y+1367903D01*
X+7023635Y+1373172D01*
X+7020592Y+1378441D01*
X+7015937Y+1383643D01*
X+7010668Y+1387469D01*
X+7005399Y+1389909D01*
X+7000130Y+1391290D01*
X+6994861Y+1391750D01*
X+6994746Y+1391750D01*
X+6962996Y+1360000D02*
X+6963105Y+1362634D01*
X+6963995Y+1367903D01*
X+6965857Y+1373172D01*
X+6968900Y+1378441D01*
X+6973555Y+1383643D01*
X+6978824Y+1387469D01*
X+6984093Y+1389909D01*
X+6989362Y+1391290D01*
X+6994631Y+1391750D01*
X+6994746Y+1391750D01*
X+6962996Y+1360000D02*
X+6963105Y+1357366D01*
X+6963995Y+1352097D01*
X+6965857Y+1346828D01*
X+6968900Y+1341559D01*
X+6973555Y+1336357D01*
X+6978824Y+1332531D01*
X+6984093Y+1330091D01*
X+6989362Y+1328710D01*
X+6994631Y+1328250D01*
X+6994746Y+1328250D01*
X+7026496Y+1360000D02*
X+7026387Y+1357366D01*
X+7025497Y+1352097D01*
X+7023635Y+1346828D01*
X+7020592Y+1341559D01*
X+7015937Y+1336357D01*
X+7010668Y+1332531D01*
X+7005399Y+1330091D01*
X+7000130Y+1328710D01*
X+6994861Y+1328250D01*
X+6994746Y+1328250D01*
X+6835996Y+1446360D02*
X+6820121Y+1461600D01*
X+6820121Y+1476840D01*
X+6835996Y+1492080D01*
X+6883621Y+1492080D01*
X+6899496Y+1476840D01*
X+6899496Y+1461600D01*
X+6883621Y+1446360D01*
X+6835996Y+1446360D01*
X+6820121Y+1431120D01*
X+6820121Y+1415880D01*
X+6835996Y+1400640D01*
X+6883621Y+1400640D01*
X+6899496Y+1415880D01*
X+6899496Y+1431120D01*
X+6883621Y+1446360D01*
X+6931246Y+1400640D02*
X+6931246Y+1461600D01*
X+6931246Y+1446360D02*
X+6947121Y+1461600D01*
X+6978871Y+1431120D01*
X+7010621Y+1461600D01*
X+7026496Y+1446360D01*
X+7026496Y+1400640D01*
X+7058246Y+1400640D02*
X+7058246Y+1461600D01*
X+7058246Y+1446360D02*
X+7074121Y+1461600D01*
X+7105871Y+1431120D01*
X+7137621Y+1461600D01*
X+7153496Y+1446360D01*
X+7153496Y+1400640D01*
X+6604746Y+1360000D02*
X+6604746Y+860000D01*
X+6604746Y+1360000D02*
X+6477746Y+1233000D01*
X+6604746Y+1360000D02*
X+6731746Y+1233000D01*
X+6604746Y+860000D02*
X+6731746Y+987000D01*
X+6604746Y+860000D02*
X+6477746Y+987000D01*
X+6636496Y+1110000D02*
X+6636387Y+1112634D01*
X+6635497Y+1117903D01*
X+6633635Y+1123172D01*
X+6630592Y+1128441D01*
X+6625937Y+1133643D01*
X+6620668Y+1137469D01*
X+6615399Y+1139909D01*
X+6610130Y+1141290D01*
X+6604861Y+1141750D01*
X+6604746Y+1141750D01*
X+6572996Y+1110000D02*
X+6573105Y+1112634D01*
X+6573995Y+1117903D01*
X+6575857Y+1123172D01*
X+6578900Y+1128441D01*
X+6583555Y+1133643D01*
X+6588824Y+1137469D01*
X+6594093Y+1139909D01*
X+6599362Y+1141290D01*
X+6604631Y+1141750D01*
X+6604746Y+1141750D01*
X+6572996Y+1110000D02*
X+6573105Y+1107366D01*
X+6573995Y+1102097D01*
X+6575857Y+1096828D01*
X+6578900Y+1091559D01*
X+6583555Y+1086357D01*
X+6588824Y+1082531D01*
X+6594093Y+1080091D01*
X+6599362Y+1078710D01*
X+6604631Y+1078250D01*
X+6604746Y+1078250D01*
X+6636496Y+1110000D02*
X+6636387Y+1107366D01*
X+6635497Y+1102097D01*
X+6633635Y+1096828D01*
X+6630592Y+1091559D01*
X+6625937Y+1086357D01*
X+6620668Y+1082531D01*
X+6615399Y+1080091D01*
X+6610130Y+1078710D01*
X+6604861Y+1078250D01*
X+6604746Y+1078250D01*
X+6736826Y+1205250D02*
X+6736826Y+1284625D01*
X+6706346Y+1284625D01*
X+6706346Y+1221125D01*
X+6691106Y+1205250D01*
X+6660626Y+1205250D01*
X+6645386Y+1221125D01*
X+6645386Y+1268750D01*
X+6660626Y+1284625D01*
X+6645386Y+1173500D02*
X+6706346Y+1173500D01*
X+6691106Y+1173500D02*
X+6706346Y+1157625D01*
X+6675866Y+1125875D01*
X+6706346Y+1094125D01*
X+6691106Y+1078250D01*
X+6645386Y+1078250D01*
X+6645386Y+1046500D02*
X+6706346Y+1046500D01*
X+6691106Y+1046500D02*
X+6706346Y+1030625D01*
X+6675866Y+998875D01*
X+6706346Y+967125D01*
X+6691106Y+951250D01*
X+6645386Y+951250D01*
D15*
X+6847746Y+1693000D02*
X+7101746Y+1693000D01*
X+7101746Y+1947000D01*
X+6847746Y+1947000D01*
X+6847746Y+1693000D01*
X+6847746Y+2018120D02*
X+6847746Y+2002880D01*
X+6863621Y+1987640D01*
X+6927121Y+1987640D01*
X+6942996Y+2002880D01*
X+6942996Y+2079080D01*
X+7069996Y+2079080D02*
X+6990621Y+2079080D01*
X+6990621Y+2048600D01*
X+7054121Y+2048600D01*
X+7069996Y+2033360D01*
X+7069996Y+2002880D01*
X+7054121Y+1987640D01*
X+7006496Y+1987640D01*
X+6990621Y+2002880D01*
X+6477746Y+743000D02*
X+6731746Y+743000D01*
X+6731746Y+997000D01*
X+6477746Y+997000D01*
X+6477746Y+743000D01*
X+6477746Y+1068120D02*
X+6477746Y+1052880D01*
X+6493621Y+1037640D01*
X+6557121Y+1037640D01*
X+6572996Y+1052880D01*
X+6572996Y+1129080D01*
X+6620621Y+1129080D02*
X+6699996Y+1129080D01*
X+6699996Y+1113840D01*
X+6620621Y+1037640D01*
X+7277746Y+1233000D02*
X+7531746Y+1233000D01*
X+7531746Y+1487000D01*
X+7277746Y+1487000D01*
X+7277746Y+1233000D01*
X+7277746Y+1558120D02*
X+7277746Y+1542880D01*
X+7293621Y+1527640D01*
X+7357121Y+1527640D01*
X+7372996Y+1542880D01*
X+7372996Y+1619080D01*
X+7436496Y+1573360D02*
X+7420621Y+1588600D01*
X+7420621Y+1603840D01*
X+7436496Y+1619080D01*
X+7484121Y+1619080D01*
X+7499996Y+1603840D01*
X+7499996Y+1588600D01*
X+7484121Y+1573360D01*
X+7436496Y+1573360D01*
X+7420621Y+1558120D01*
X+7420621Y+1542880D01*
X+7436496Y+1527640D01*
X+7484121Y+1527640D01*
X+7499996Y+1542880D01*
X+7499996Y+1558120D01*
X+7484121Y+1573360D01*
M02*
